<?xml version="1.0" standalone="no"?>
<!DOCTYPE svg PUBLIC "-//W3C//DTD SVG 20010904//EN"
 "http://www.w3.org/TR/2001/REC-SVG-20010904/DTD/svg10.dtd">
<svg version="1.0" xmlns="http://www.w3.org/2000/svg"
 width="375.000000pt" height="353.000000pt" viewBox="0 0 375.000000 353.000000"
 preserveAspectRatio="xMidYMid meet">

<g transform="translate(0.000000,353.000000) scale(0.100000,-0.100000)"
fill="#000000" stroke="none">
<path d="M2449 2366 c-48 -17 -99 -49 -128 -80 -23 -24 -31 -26 -113 -26 l-88
0 -2 -167 -3 -168 -35 34 c-19 19 -28 31 -20 26 8 -4 12 -4 7 0 -4 5 -15 10
-25 11 -9 1 -35 9 -57 18 -29 11 -77 15 -180 15 -163 -1 -243 -10 -256 -30
-14 -23 -10 -55 9 -72 16 -15 45 -17 192 -17 157 0 178 -2 218 -21 53 -26 93
-83 100 -144 3 -31 11 -50 26 -60 44 -31 78 -8 91 60 14 78 62 135 133 155 20
5 109 10 197 10 88 0 165 4 171 8 20 13 32 47 24 68 -11 29 -23 35 -73 39
l-42 3 -2 162 c-1 107 -6 166 -14 176 -14 17 -81 18 -130 0z"/>
<path d="M1703 2363 c9 -2 25 -2 35 0 9 3 1 5 -18 5 -19 0 -27 -2 -17 -5z"/>
<path d="M1777 2359 c7 -7 15 -10 18 -7 3 3 -2 9 -12 12 -14 6 -15 5 -6 -5z"/>
<path d="M1906 2288 c10 -14 21 -24 23 -22 3 3 -6 15 -18 27 l-24 22 19 -27z"/>
<path d="M1947 2248 c2 -5 38 -8 79 -8 l74 0 0 -136 c0 -87 -4 -133 -10 -129
-15 9 -12 -1 5 -15 13 -11 15 5 15 138 l0 151 -84 3 c-46 2 -82 0 -79 -4z"/>
<path d="M1743 2043 c37 -2 97 -2 135 0 37 2 6 3 -68 3 -74 0 -105 -1 -67 -3z"/>
<path d="M1958 2033 c7 -3 16 -2 19 1 4 3 -2 6 -13 5 -11 0 -14 -3 -6 -6z"/>
<path d="M1991 2026 c2 -2 15 -9 29 -15 24 -11 24 -11 6 3 -16 13 -49 24 -35
12z"/>
<path d="M1714 1521 c-23 -10 -45 -24 -48 -30 -4 -6 9 -2 28 10 19 11 57 24
83 29 43 7 44 8 13 9 -19 0 -54 -8 -76 -18z"/>
<path d="M1853 1533 c9 -2 25 -2 35 0 9 3 1 5 -18 5 -19 0 -27 -2 -17 -5z"/>
<path d="M1940 1516 c0 -2 7 -7 16 -10 8 -3 12 -2 9 4 -6 10 -25 14 -25 6z"/>
<path d="M2017 1460 c23 -25 51 -65 62 -90 11 -25 21 -39 21 -32 0 26 -40 88
-82 127 l-43 40 42 -45z"/>
<path d="M1619 1453 c-13 -16 -12 -17 4 -4 16 13 21 21 13 21 -2 0 -10 -8 -17
-17z"/>
<path d="M1470 1365 c-25 -13 -41 -24 -37 -25 11 0 87 39 87 45 0 7 0 7 -50
-20z"/>
<path d="M2106 1275 c7 -63 -18 -184 -51 -252 -74 -149 -215 -251 -380 -273
-59 -7 -59 -7 -14 -9 139 -4 321 120 397 269 44 88 68 205 54 268 l-11 47 5
-50z"/>
<path d="M1278 1303 c7 -3 16 -2 19 1 4 3 -2 6 -13 5 -11 0 -14 -3 -6 -6z"/>
<path d="M1085 1290 c-3 -6 1 -7 9 -4 18 7 21 14 7 14 -6 0 -13 -4 -16 -10z"/>
<path d="M1081 1174 c0 -11 3 -14 6 -6 3 7 2 16 -1 19 -3 4 -6 -2 -5 -13z"/>
<path d="M1100 1075 c0 -12 53 -111 64 -117 6 -4 81 -8 167 -8 140 0 159 2
181 20 14 10 27 18 29 16 2 -3 4 13 4 34 0 21 -3 36 -6 34 -4 -2 -12 3 -19 11
-10 12 -48 15 -216 15 -112 0 -204 -2 -204 -5z"/>
<path d="M1552 1020 c0 -14 2 -19 5 -12 2 6 2 18 0 25 -3 6 -5 1 -5 -13z"/>
<path d="M1215 900 c21 -22 41 -40 44 -40 3 0 -13 18 -34 40 -21 22 -41 40
-44 40 -3 0 13 -18 34 -40z"/>
<path d="M1067 840 c-235 -5 -237 -6 -237 -60 0 -50 1 -50 359 -49 219 1 321
4 292 10 -48 9 -155 57 -186 83 -11 10 2 5 28 -10 26 -14 50 -25 52 -23 2 2
-18 15 -43 29 -47 25 -47 25 -265 20z"/>
<path d="M2245 799 c-117 -63 -178 -74 -427 -74 l-218 0 0 -144 0 -143 34 -34
c26 -26 42 -34 70 -34 50 0 91 23 108 60 16 37 24 38 32 5 8 -33 61 -65 108
-65 27 0 47 8 70 29 l33 29 5 149 5 148 372 3 373 2 15 24 c18 27 7 69 -20 80
-9 3 -123 5 -253 5 l-237 -1 -70 -39z"/>
<path d="M1488 753 c7 -3 16 -2 19 1 4 3 -2 6 -13 5 -11 0 -14 -3 -6 -6z"/>
</g>
</svg>
